<svg width="100" height="93" viewBox="0 0 100 93" fill="none" xmlns="http://www.w3.org/2000/svg">
<path d="M83.4286 0H97.7143V13.7103H83.4286V0ZM83.4286 20.5655H97.7143V34.2758H83.4286V20.5655ZM62 0H76.2857V13.7103H62V0ZM62 20.5655H76.2857V34.2758H62V20.5655Z" fill="#0052A6"/>
<path d="M92.8571 44.1309V64.6964H7.14286V9.85516H50V3H7.14286C5.24845 3 3.43164 3.72224 2.09209 5.00783C0.752549 6.29342 0 8.03706 0 9.85516V64.6964C0 66.5145 0.752549 68.2582 2.09209 69.5438C3.43164 70.8293 5.24845 71.5516 7.14286 71.5516H35.7143V85.2619H21.4286V92.1171H78.5714V85.2619H64.2857V71.5516H92.8571C94.7515 71.5516 96.5684 70.8293 97.9079 69.5438C99.2474 68.2582 100 66.5145 100 64.6964V44.1309H92.8571ZM57.1429 85.2619H42.8571V71.5516H57.1429V85.2619Z" fill="#0052A6"/>
</svg>
